<svg width="85" height="63" viewBox="0 0 85 63" fill="none" xmlns="http://www.w3.org/2000/svg">
<rect width="85" height="63" rx="31.5" fill="#252525"/>
<circle cx="43" cy="32" r="14.5" transform="rotate(-90 43 32)" stroke="white" stroke-width="3"/>
<path d="M51 33.0064C51.5557 33.0064 52.0062 32.5558 52.0062 32.0001C52.0062 31.4444 51.5557 30.9939 51 30.9939V33.0064ZM35.2885 31.2886C34.8955 31.6816 34.8955 32.3187 35.2885 32.7116L41.6921 39.1152C42.0851 39.5082 42.7222 39.5082 43.1151 39.1152C43.5081 38.7223 43.5081 38.0852 43.1151 37.6922L37.423 32.0001L43.1151 26.308C43.5081 25.9151 43.5081 25.278 43.1151 24.885C42.7222 24.492 42.0851 24.492 41.6921 24.885L35.2885 31.2886ZM51 30.9939H36V33.0064H51V30.9939Z" fill="white"/>
</svg>
