<svg width="21" height="13" viewBox="0 0 21 13" fill="none" xmlns="http://www.w3.org/2000/svg">
<path d="M20.3086 1.0625C19.3945 2.28125 18.6211 3.30078 17.9883 4.12109C17.332 4.94141 16.8047 5.59766 16.4063 6.08984C15.9375 6.67578 15.5391 7.13281 15.2109 7.46094C14.9297 7.78906 14.6016 8.21094 14.2266 8.72656C13.8984 9.17187 13.5117 9.73437 13.0664 10.4141C12.5977 11.1172 12.082 11.9727 11.5195 12.9805L8.67188 12.9805C8.10938 11.7852 7.61719 10.7891 7.19531 9.99219C6.77344 9.19531 6.42188 8.55078 6.14063 8.05859C5.8125 7.47266 5.53125 7.01562 5.29688 6.6875C5.0625 6.35937 4.73438 5.92578 4.3125 5.38672C3.96094 4.91797 3.49219 4.30859 2.90625 3.55859C2.32031 2.83203 1.58203 1.92969 0.691406 0.851562H5.05078C5.56641 1.60156 5.97656 2.24609 6.28125 2.78516C6.58594 3.34766 6.83203 3.79297 7.01953 4.12109C7.23047 4.51953 7.38281 4.83594 7.47656 5.07031C7.57031 5.30469 7.71094 5.63281 7.89844 6.05469C8.0625 6.40625 8.29688 6.85156 8.60156 7.39062C8.88281 7.95312 9.25781 8.64453 9.72656 9.46484C10.3359 8.76172 10.8281 8.17578 11.2031 7.70703C11.5781 7.23828 11.8828 6.85156 12.1172 6.54687C12.375 6.19531 12.5742 5.92578 12.7148 5.73828C12.832 5.52734 13.0195 5.22266 13.2773 4.82422C13.4883 4.49609 13.7695 4.03906 14.1211 3.45312C14.4492 2.86719 14.8711 2.12891 15.3867 1.23828L20.3086 1.0625Z" fill="white"/>
</svg>
