<svg width="65" height="64" viewBox="0 0 65 64" fill="none" xmlns="http://www.w3.org/2000/svg">
<path d="M6.5 50.7748H13V63.7255L29.5782 50.7748H45.5C49.0848 50.7748 52 47.9282 52 44.4279V19.0405C52 15.5402 49.0848 12.6937 45.5 12.6937H6.5C2.91525 12.6937 0 15.5402 0 19.0405V44.4279C0 47.9282 2.91525 50.7748 6.5 50.7748Z" fill="white"/>
<path d="M58.5 0H19.5C15.9152 0 13 2.84656 13 6.34684H52C55.5848 6.34684 58.5 9.1934 58.5 12.6937V38.0811C62.0847 38.0811 65 35.2345 65 31.7342V6.34684C65 2.84656 62.0847 0 58.5 0Z" fill="white"/>
</svg>
