<svg width="25" height="23" viewBox="0 0 25 23" fill="none" xmlns="http://www.w3.org/2000/svg">
<path d="M13.75 13.8H16.25V10.35H20V8.05H16.25V4.6H13.75V8.05H10V10.35H13.75V13.8ZM7.5 18.4C6.8125 18.4 6.22417 18.175 5.735 17.7249C5.24583 17.2749 5.00083 16.7333 5 16.1V2.3C5 1.6675 5.245 1.12623 5.735 0.6762C6.225 0.226167 6.81333 0.000766667 7.5 0H22.5C23.1875 0 23.7762 0.2254 24.2662 0.6762C24.7562 1.127 25.0008 1.66827 25 2.3V16.1C25 16.7325 24.7554 17.2741 24.2662 17.7249C23.7771 18.1757 23.1883 18.4008 22.5 18.4H7.5ZM2.5 23C1.8125 23 1.22417 22.775 0.735 22.3249C0.245833 21.8749 0.000833333 21.3333 0 20.7V4.6H2.5V20.7H20V23H2.5Z" fill="white"/>
</svg>
