<svg width="20" height="29" viewBox="0 0 20 29" fill="none" xmlns="http://www.w3.org/2000/svg">
<path d="M17.3127 28.416C18.3659 28.416 19.125 27.6416 19.125 26.6043V1.90484C19.125 0.867518 18.3659 0 17.2816 0C16.5231 0 16.0124 0.340929 15.1918 1.11529L8.36266 7.57245C8.24962 7.66617 8.10642 7.71571 7.95962 7.71186H3.36105C1.17739 7.71186 0 8.90445 0 11.2269V17.2354C0 19.5585 1.17739 20.7504 3.36039 20.7504H7.95962C8.11489 20.7504 8.25364 20.7966 8.36266 20.8898L15.1918 27.4097C15.9344 28.1061 16.5542 28.416 17.3127 28.416Z" fill="white"/>
</svg>
